<svg xmlns="http://www.w3.org/2000/svg" width="128" height="128" viewBox="0 0 128 128"><g data-name="Product Icons"><path d="m64 10.667-43.787 18.24v30.027c0 26.987 18.667 52.267 43.787 58.667 25.12-6.133 43.787-31.413 43.787-58.4V28.907Zm0 20.213a14.027 14.027 0 1 1-9.92 4.107A14.03 14.03 0 0 1 64 30.88m21.92 59.467A46.1 46.1 0 0 1 64 105.973a46.1 46.1 0 0 1-21.92-15.627v-12c0-8.907 14.613-13.44 21.92-13.44s21.92 4.533 21.92 13.44z" style="fill:#669df6;fill-rule:evenodd"/><path d="M64 10.667V30.88a14.027 14.027 0 1 1 0 28.053v5.973c7.307 0 21.92 4.533 21.92 13.44v12A46.1 46.1 0 0 1 64 105.973v11.36c25.12-6.133 43.787-31.413 43.787-58.4V28.907Z" style="fill-rule:evenodd;fill:#4285f4"/></g></svg>